<svg xmlns="http://www.w3.org/2000/svg" viewBox="0 0 900 1125" role="img" aria-labelledby="t d"><title id="t">Abstract New York City skyline</title><desc id="d">Original geometric city illustration in black, gold and blue.</desc><defs><linearGradient id="bg" x1="0" y1="0" x2="1" y2="1"><stop stop-color="#172554"/><stop offset=".45" stop-color="#111827"/><stop offset="1" stop-color="#020617"/></linearGradient><linearGradient id="glow" x1="0" y1="0" x2="0" y2="1"><stop stop-color="#fbbf24" stop-opacity=".95"/><stop offset="1" stop-color="#f59e0b" stop-opacity=".15"/></linearGradient></defs><rect width="900" height="1125" fill="url(#bg)"/><circle cx="690" cy="210" r="170" fill="#38bdf8" opacity=".12"/><circle cx="210" cy="260" r="140" fill="#fbbf24" opacity=".12"/><path d="M0 760L75 690 120 712 166 590 214 645 260 500 300 650 350 610 390 380 425 300 460 590 520 535 560 470 600 640 670 560 715 590 770 470 815 560 900 510V1125H0Z" fill="#09090b"/><path d="M390 380L425 300 460 590H390Z" fill="url(#glow)" opacity=".6"/><g fill="#fbbf24" opacity=".72"><rect x="95" y="760" width="12" height="22" rx="2"/><rect x="135" y="725" width="12" height="22" rx="2"/><rect x="187" y="695" width="12" height="22" rx="2"/><rect x="275" y="700" width="12" height="22" rx="2"/><rect x="330" y="665" width="12" height="22" rx="2"/><rect x="405" y="520" width="12" height="22" rx="2"/><rect x="520" y="640" width="12" height="22" rx="2"/><rect x="585" y="690" width="12" height="22" rx="2"/><rect x="690" y="650" width="12" height="22" rx="2"/><rect x="785" y="625" width="12" height="22" rx="2"/></g><path d="M0 935C170 880 310 980 475 930S750 860 900 915V1125H0Z" fill="#0f172a" opacity=".72"/><path d="M0 976C180 930 330 1020 500 970S760 920 900 960" fill="none" stroke="#38bdf8" stroke-opacity=".4" stroke-width="4"/></svg>
